<?xml version="1.0" encoding="utf-8"?>
<!-- Generator: Adobe Illustrator 24.0.3, SVG Export Plug-In . SVG Version: 6.00 Build 0)  -->
<svg version="1.0" id="Layer_1" xmlns="http://www.w3.org/2000/svg" xmlns:xlink="http://www.w3.org/1999/xlink" x="0px" y="0px"
	 width="680.58px" height="270.87px" viewBox="0 0 680.58 270.87" style="enable-background:new 0 0 680.58 270.87;"
	 xml:space="preserve">
<style type="text/css">
	.st0{fill:#FCAF17;}
</style>
<g>
	<polygon class="st0" points="375.86,180.58 395.7,180.58 395.7,160.64 325.31,90.29 305.41,90.29 305.41,110.18 330.66,135.41 
		305.41,160.64 305.41,180.58 325.26,180.58 350.56,155.3 	"/>
	<rect x="371.74" y="90.29" class="st0" width="23.96" height="23.96"/>
	<path class="st0" d="M472.2,162.47l8.74,18.11h18.89v-19.97l-31.33-68.18l-0.94-2.14h-25.42l-0.93,2.13l-31.67,68.19v19.97h18.54
		l8.68-18.11H472.2z M454.69,115.32l11.41,27.09h-22.83L454.69,115.32z"/>
	<path class="st0" d="M263.94,162.47l8.74,18.11h18.89v-19.97l-31.33-68.18l-0.94-2.14h-25.42l-0.93,2.13l-31.67,68.19v19.97h18.55
		l9.07-18.11H263.94z M246.43,115.32l11.41,27.09h-22.83L246.43,115.32z"/>
	<path class="st0" d="M545.91,147.47l0.24,0.29l27.05,32.56h16.7v-16.67l-16.72-19.28l2.14-1.03c3.48-1.68,6.56-4.14,9.16-7.31
		c3.86-4.71,5.81-10.64,5.81-17.62c0-9.03-3-16.09-8.91-20.96c-5.76-4.74-13.43-7.15-22.82-7.15h-43.81v90.29h22.41v-33.73h8.23
		L545.91,147.47z M537.16,126.52v-16.23h22.66c4.47,0,8.11,3.64,8.11,8.11s-3.64,8.11-8.11,8.11l-20.84,0.01H537.16z"/>
	<polygon class="st0" points="163.96,180.58 186.37,180.58 186.36,90.29 162.28,90.29 160.72,92.67 138.33,129.04 115.92,92.65 
		114.37,90.29 90.29,90.29 90.3,180.58 112.71,180.58 112.71,133.67 129.36,162.47 147.32,162.47 163.96,133.67 	"/>
</g>
</svg>
