<?xml version="1.0" encoding="utf-8"?>
<!-- Generator: Adobe Illustrator 21.1.0, SVG Export Plug-In . SVG Version: 6.00 Build 0)  -->
<svg version="1.0" id="Layer_1" xmlns="http://www.w3.org/2000/svg" xmlns:xlink="http://www.w3.org/1999/xlink" x="0px" y="0px"
	 width="276px" height="106px" viewBox="0 0 276 106" style="enable-background:new 0 0 276 106;" xml:space="preserve">
<style type="text/css">
	.st0{fill:url(#SVGID_1_);}
	.st1{fill:url(#SVGID_2_);}
	.st2{fill:url(#SVGID_3_);}
	.st3{fill:url(#SVGID_4_);}
	.st4{fill:url(#SVGID_5_);}
	.st5{fill:url(#SVGID_6_);}
	.st6{fill:url(#SVGID_7_);}
	.st7{fill:url(#SVGID_8_);}
	.st8{fill:url(#SVGID_9_);}
	.st9{fill:url(#SVGID_10_);}
	.st10{fill:url(#SVGID_11_);}
	.st11{fill:url(#SVGID_12_);}
	.st12{fill:url(#SVGID_13_);}
	.st13{fill:url(#SVGID_14_);}
	.st14{fill:url(#SVGID_15_);}
	.st15{fill:url(#SVGID_16_);}
	.st16{fill:url(#SVGID_17_);}
	.st17{fill:url(#SVGID_18_);}
	.st18{fill:url(#SVGID_19_);}
	.st19{fill:url(#SVGID_20_);}
	.st20{fill:url(#SVGID_21_);}
	.st21{fill:url(#SVGID_22_);}
	.st22{fill:url(#SVGID_23_);}
	.st23{fill:url(#SVGID_24_);}
	.st24{fill:url(#SVGID_25_);}
	.st25{fill:url(#SVGID_26_);}
	.st26{fill:url(#SVGID_27_);}
	.st27{fill:url(#SVGID_28_);}
	.st28{fill:url(#SVGID_29_);}
	.st29{fill:url(#SVGID_30_);}
	.st30{fill:url(#SVGID_31_);}
	.st31{fill:url(#SVGID_32_);}
	.st32{fill:#231F20;}
</style>
<g>
	<g>
		<g>
			<g>
				<linearGradient id="SVGID_1_" gradientUnits="userSpaceOnUse" x1="0" y1="33.0428" x2="276" y2="33.0428">
					<stop  offset="0" style="stop-color:#20255F"/>
					<stop  offset="0.4963" style="stop-color:#006F73"/>
					<stop  offset="0.5329" style="stop-color:#0B786E"/>
					<stop  offset="0.6699" style="stop-color:#31945D"/>
					<stop  offset="0.7969" style="stop-color:#4CA950"/>
					<stop  offset="0.9092" style="stop-color:#5CB649"/>
					<stop  offset="0.995" style="stop-color:#62BA46"/>
				</linearGradient>
				<path class="st0" d="M74.9,53.4V39l-10.1,4.1c0.1,0.3,0.1,0.5,0.1,0.8c0,0.6-0.2,1.1-0.5,1.6L74.9,53.4z"/>
				<linearGradient id="SVGID_2_" gradientUnits="userSpaceOnUse" x1="0" y1="33.0428" x2="276" y2="33.0428">
					<stop  offset="0" style="stop-color:#20255F"/>
					<stop  offset="0.4963" style="stop-color:#006F73"/>
					<stop  offset="0.5329" style="stop-color:#0B786E"/>
					<stop  offset="0.6699" style="stop-color:#31945D"/>
					<stop  offset="0.7969" style="stop-color:#4CA950"/>
					<stop  offset="0.9092" style="stop-color:#5CB649"/>
					<stop  offset="0.995" style="stop-color:#62BA46"/>
				</linearGradient>
				<path class="st1" d="M97.3,20.9c-10.5,0-15.2,6.7-16.9,14.2l26.3-10.8C104.3,22.1,101,20.9,97.3,20.9z"/>
				<linearGradient id="SVGID_3_" gradientUnits="userSpaceOnUse" x1="0" y1="33.0428" x2="276" y2="33.0428">
					<stop  offset="0" style="stop-color:#20255F"/>
					<stop  offset="0.4963" style="stop-color:#006F73"/>
					<stop  offset="0.5329" style="stop-color:#0B786E"/>
					<stop  offset="0.6699" style="stop-color:#31945D"/>
					<stop  offset="0.7969" style="stop-color:#4CA950"/>
					<stop  offset="0.9092" style="stop-color:#5CB649"/>
					<stop  offset="0.995" style="stop-color:#62BA46"/>
				</linearGradient>
				<path class="st2" d="M137.7,13.6c-0.1-0.1-0.1-0.1-0.1-0.2l-5.8,2.4v1.7h3.4L137.7,13.6z"/>
				<linearGradient id="SVGID_4_" gradientUnits="userSpaceOnUse" x1="0" y1="33.0428" x2="276" y2="33.0428">
					<stop  offset="0" style="stop-color:#20255F"/>
					<stop  offset="0.4963" style="stop-color:#006F73"/>
					<stop  offset="0.5329" style="stop-color:#0B786E"/>
					<stop  offset="0.6699" style="stop-color:#31945D"/>
					<stop  offset="0.7969" style="stop-color:#4CA950"/>
					<stop  offset="0.9092" style="stop-color:#5CB649"/>
					<stop  offset="0.995" style="stop-color:#62BA46"/>
				</linearGradient>
				<path class="st3" d="M54.5,30.3c2.6,0,5.2,1,5.2,3.8c0,2.6-2.2,3.3-4.3,3.7c-0.3,0.1-0.6,0.1-1,0.2l5.6,4.2c0.5-0.6,1.3-1,2.1-1
					c0.7,0,1.3,0.2,1.8,0.7l11-4.5v-0.2c0-8,0.2-16.2-19.7-16.2c-4.9,0-10.2,0.5-14.2,2.4c-1.2,0.6-2.3,1.3-3.2,2.1l10.9,8.2
					C49,32,50.4,30.3,54.5,30.3z"/>
				<linearGradient id="SVGID_5_" gradientUnits="userSpaceOnUse" x1="0" y1="33.0428" x2="276" y2="33.0428">
					<stop  offset="0" style="stop-color:#20255F"/>
					<stop  offset="0.4963" style="stop-color:#006F73"/>
					<stop  offset="0.5329" style="stop-color:#0B786E"/>
					<stop  offset="0.6699" style="stop-color:#31945D"/>
					<stop  offset="0.7969" style="stop-color:#4CA950"/>
					<stop  offset="0.9092" style="stop-color:#5CB649"/>
					<stop  offset="0.995" style="stop-color:#62BA46"/>
				</linearGradient>
				<path class="st4" d="M5.9,37.4L0,33.3v17.4l6.4-10.5C5.7,39.4,5.5,38.4,5.9,37.4z"/>
				<linearGradient id="SVGID_6_" gradientUnits="userSpaceOnUse" x1="0" y1="33.0428" x2="276" y2="33.0428">
					<stop  offset="0" style="stop-color:#20255F"/>
					<stop  offset="0.4963" style="stop-color:#006F73"/>
					<stop  offset="0.5329" style="stop-color:#0B786E"/>
					<stop  offset="0.6699" style="stop-color:#31945D"/>
					<stop  offset="0.7969" style="stop-color:#4CA950"/>
					<stop  offset="0.9092" style="stop-color:#5CB649"/>
					<stop  offset="0.995" style="stop-color:#62BA46"/>
				</linearGradient>
				<path class="st5" d="M36.7,26.5c-1.7,2-2.7,4.6-2.9,8h13.4L36.7,26.5z"/>
				<linearGradient id="SVGID_7_" gradientUnits="userSpaceOnUse" x1="0" y1="33.0428" x2="276" y2="33.0428">
					<stop  offset="0" style="stop-color:#20255F"/>
					<stop  offset="0.4963" style="stop-color:#006F73"/>
					<stop  offset="0.5329" style="stop-color:#0B786E"/>
					<stop  offset="0.6699" style="stop-color:#31945D"/>
					<stop  offset="0.7969" style="stop-color:#4CA950"/>
					<stop  offset="0.9092" style="stop-color:#5CB649"/>
					<stop  offset="0.995" style="stop-color:#62BA46"/>
				</linearGradient>
				<path class="st6" d="M9.2,35.7l5.3-8.6L12,21.9H0v9.5l6.7,4.8C7.4,35.6,8.4,35.4,9.2,35.7z"/>
				<linearGradient id="SVGID_8_" gradientUnits="userSpaceOnUse" x1="0" y1="33.0428" x2="276" y2="33.0428">
					<stop  offset="0" style="stop-color:#20255F"/>
					<stop  offset="0.4963" style="stop-color:#006F73"/>
					<stop  offset="0.5329" style="stop-color:#0B786E"/>
					<stop  offset="0.6699" style="stop-color:#31945D"/>
					<stop  offset="0.7969" style="stop-color:#4CA950"/>
					<stop  offset="0.9092" style="stop-color:#5CB649"/>
					<stop  offset="0.995" style="stop-color:#62BA46"/>
				</linearGradient>
				<path class="st7" d="M139.1,14.3l-2.1,3.1h9.3l-4.9-3.7c-0.5,0.4-1.1,0.6-1.8,0.6C139.5,14.4,139.3,14.4,139.1,14.3z"/>
				<linearGradient id="SVGID_9_" gradientUnits="userSpaceOnUse" x1="0" y1="33.0428" x2="276" y2="33.0428">
					<stop  offset="0" style="stop-color:#20255F"/>
					<stop  offset="0.4963" style="stop-color:#006F73"/>
					<stop  offset="0.5329" style="stop-color:#0B786E"/>
					<stop  offset="0.6699" style="stop-color:#31945D"/>
					<stop  offset="0.7969" style="stop-color:#4CA950"/>
					<stop  offset="0.9092" style="stop-color:#5CB649"/>
					<stop  offset="0.995" style="stop-color:#62BA46"/>
				</linearGradient>
				<path class="st8" d="M175,30.3c2.6,0,5.2,1,5.2,3.8c0,2.6-2.2,3.3-4.3,3.7c-0.1,0-0.1,0-0.2,0l5.3,4c0.5-0.4,1.1-0.6,1.7-0.6
					c0.7,0,1.3,0.3,1.8,0.7l10.9-4.4v-0.3c0-8,0.2-16.2-19.7-16.2c-4.9,0-10.2,0.5-14.2,2.4c-1,0.5-1.9,1-2.8,1.7l10.6,8
					C170,31.6,171.4,30.3,175,30.3z"/>
				<linearGradient id="SVGID_10_" gradientUnits="userSpaceOnUse" x1="0" y1="33.0428" x2="276" y2="33.0428">
					<stop  offset="0" style="stop-color:#20255F"/>
					<stop  offset="0.4963" style="stop-color:#006F73"/>
					<stop  offset="0.5329" style="stop-color:#0B786E"/>
					<stop  offset="0.6699" style="stop-color:#31945D"/>
					<stop  offset="0.7969" style="stop-color:#4CA950"/>
					<stop  offset="0.9092" style="stop-color:#5CB649"/>
					<stop  offset="0.995" style="stop-color:#62BA46"/>
				</linearGradient>
				<path class="st9" d="M254.2,30.2c0-0.9,0.5-1.7,1.2-2.2l-3.6-10.2l0,0v16l2.8-2.4C254.3,31,254.2,30.6,254.2,30.2z"/>
				<linearGradient id="SVGID_11_" gradientUnits="userSpaceOnUse" x1="0" y1="33.0428" x2="276" y2="33.0428">
					<stop  offset="0" style="stop-color:#20255F"/>
					<stop  offset="0.4963" style="stop-color:#006F73"/>
					<stop  offset="0.5329" style="stop-color:#0B786E"/>
					<stop  offset="0.6699" style="stop-color:#31945D"/>
					<stop  offset="0.7969" style="stop-color:#4CA950"/>
					<stop  offset="0.9092" style="stop-color:#5CB649"/>
					<stop  offset="0.995" style="stop-color:#62BA46"/>
				</linearGradient>
				<path class="st10" d="M231.1,20.9c-6.3,0-10.6,2.2-13.5,6.3h-0.2l-2.6-5.3h-12.7v12.8L235,21.3C233.7,21,232.4,20.9,231.1,20.9z
					"/>
				<linearGradient id="SVGID_12_" gradientUnits="userSpaceOnUse" x1="0" y1="33.0428" x2="276" y2="33.0428">
					<stop  offset="0" style="stop-color:#20255F"/>
					<stop  offset="0.4963" style="stop-color:#006F73"/>
					<stop  offset="0.5329" style="stop-color:#0B786E"/>
					<stop  offset="0.6699" style="stop-color:#31945D"/>
					<stop  offset="0.7969" style="stop-color:#4CA950"/>
					<stop  offset="0.9092" style="stop-color:#5CB649"/>
					<stop  offset="0.995" style="stop-color:#62BA46"/>
				</linearGradient>
				<path class="st11" d="M257,27.4c0.5,0,1.1,0.2,1.5,0.4l9.1-8V9.3L253.1,17l3.7,10.4C256.8,27.4,256.9,27.4,257,27.4z"/>
				<linearGradient id="SVGID_13_" gradientUnits="userSpaceOnUse" x1="0" y1="33.0428" x2="276" y2="33.0428">
					<stop  offset="0" style="stop-color:#20255F"/>
					<stop  offset="0.4963" style="stop-color:#006F73"/>
					<stop  offset="0.5329" style="stop-color:#0B786E"/>
					<stop  offset="0.6699" style="stop-color:#31945D"/>
					<stop  offset="0.7969" style="stop-color:#4CA950"/>
					<stop  offset="0.9092" style="stop-color:#5CB649"/>
					<stop  offset="0.995" style="stop-color:#62BA46"/>
				</linearGradient>
				<path class="st12" d="M7.7,41L0,53.6v9.8h15.8V47c0-0.9,0-1.7,0.1-2.5l-5.7-4C9.5,41.1,8.6,41.3,7.7,41z"/>
				<linearGradient id="SVGID_14_" gradientUnits="userSpaceOnUse" x1="0" y1="33.0428" x2="276" y2="33.0428">
					<stop  offset="0" style="stop-color:#20255F"/>
					<stop  offset="0.4963" style="stop-color:#006F73"/>
					<stop  offset="0.5329" style="stop-color:#0B786E"/>
					<stop  offset="0.6699" style="stop-color:#31945D"/>
					<stop  offset="0.7969" style="stop-color:#4CA950"/>
					<stop  offset="0.9092" style="stop-color:#5CB649"/>
					<stop  offset="0.995" style="stop-color:#62BA46"/>
				</linearGradient>
				<path class="st13" d="M136.9,11.6c0-1.5,1.2-2.8,2.8-2.8c0.4,0,0.7,0.1,1,0.2l5-7.5h-13.9v12.5l5.2-2.1
					C136.9,11.9,136.9,11.8,136.9,11.6z"/>
				<linearGradient id="SVGID_15_" gradientUnits="userSpaceOnUse" x1="0" y1="33.0428" x2="276" y2="33.0428">
					<stop  offset="0" style="stop-color:#20255F"/>
					<stop  offset="0.4963" style="stop-color:#006F73"/>
					<stop  offset="0.5329" style="stop-color:#0B786E"/>
					<stop  offset="0.6699" style="stop-color:#31945D"/>
					<stop  offset="0.7969" style="stop-color:#4CA950"/>
					<stop  offset="0.9092" style="stop-color:#5CB649"/>
					<stop  offset="0.995" style="stop-color:#62BA46"/>
				</linearGradient>
				<path class="st14" d="M157.7,26.1c-1.9,2-3.1,4.7-3.3,8.4h14.4L157.7,26.1z"/>
				<linearGradient id="SVGID_16_" gradientUnits="userSpaceOnUse" x1="0" y1="33.0428" x2="276" y2="33.0428">
					<stop  offset="0" style="stop-color:#20255F"/>
					<stop  offset="0.4963" style="stop-color:#006F73"/>
					<stop  offset="0.5329" style="stop-color:#0B786E"/>
					<stop  offset="0.6699" style="stop-color:#31945D"/>
					<stop  offset="0.7969" style="stop-color:#4CA950"/>
					<stop  offset="0.9092" style="stop-color:#5CB649"/>
					<stop  offset="0.995" style="stop-color:#62BA46"/>
				</linearGradient>
				<path class="st15" d="M195.4,52.7V39.1l-10,4.1c0.1,0.2,0.1,0.5,0.1,0.8c0,0.4-0.1,0.7-0.2,1.1L195.4,52.7z"/>
				<linearGradient id="SVGID_17_" gradientUnits="userSpaceOnUse" x1="0" y1="33.0428" x2="276" y2="33.0428">
					<stop  offset="0" style="stop-color:#20255F"/>
					<stop  offset="0.4963" style="stop-color:#006F73"/>
					<stop  offset="0.5329" style="stop-color:#0B786E"/>
					<stop  offset="0.6699" style="stop-color:#31945D"/>
					<stop  offset="0.7969" style="stop-color:#4CA950"/>
					<stop  offset="0.9092" style="stop-color:#5CB649"/>
					<stop  offset="0.995" style="stop-color:#62BA46"/>
				</linearGradient>
				<polygon class="st16" points="229.5,63.4 245.4,63.4 245.4,41.4 229.5,55.3 				"/>
				<linearGradient id="SVGID_18_" gradientUnits="userSpaceOnUse" x1="0" y1="33.0428" x2="276" y2="33.0428">
					<stop  offset="0" style="stop-color:#20255F"/>
					<stop  offset="0.4963" style="stop-color:#006F73"/>
					<stop  offset="0.5329" style="stop-color:#0B786E"/>
					<stop  offset="0.6699" style="stop-color:#31945D"/>
					<stop  offset="0.7969" style="stop-color:#4CA950"/>
					<stop  offset="0.9092" style="stop-color:#5CB649"/>
					<stop  offset="0.995" style="stop-color:#62BA46"/>
				</linearGradient>
				<polygon class="st17" points="202.2,63.4 207.1,63.4 202.2,59.7 				"/>
				<linearGradient id="SVGID_19_" gradientUnits="userSpaceOnUse" x1="0" y1="33.0428" x2="276" y2="33.0428">
					<stop  offset="0" style="stop-color:#20255F"/>
					<stop  offset="0.4963" style="stop-color:#006F73"/>
					<stop  offset="0.5329" style="stop-color:#0B786E"/>
					<stop  offset="0.6699" style="stop-color:#31945D"/>
					<stop  offset="0.7969" style="stop-color:#4CA950"/>
					<stop  offset="0.9092" style="stop-color:#5CB649"/>
					<stop  offset="0.995" style="stop-color:#62BA46"/>
				</linearGradient>
				<path class="st18" d="M184.3,46.2c-0.5,0.3-1,0.5-1.6,0.5c-1.1,0-2-0.6-2.4-1.5l-0.1,0v3.3c-0.2,4.3-3,6.5-6.6,6.5
					c-2.9,0-5-1.9-5-3.8c0-0.5,0.1-0.9,0.2-1.3l-15.7,6.4c1.9,5.6,7.5,8.1,14,8.1c5,0,9.8-1.1,13.1-4.7l1.7,3.6l13.5,0v-7.6
					c0-0.4,0-0.8,0-1.2L184.3,46.2z"/>
				<linearGradient id="SVGID_20_" gradientUnits="userSpaceOnUse" x1="0" y1="33.0428" x2="276" y2="33.0428">
					<stop  offset="0" style="stop-color:#20255F"/>
					<stop  offset="0.4963" style="stop-color:#006F73"/>
					<stop  offset="0.5329" style="stop-color:#0B786E"/>
					<stop  offset="0.6699" style="stop-color:#31945D"/>
					<stop  offset="0.7969" style="stop-color:#4CA950"/>
					<stop  offset="0.9092" style="stop-color:#5CB649"/>
					<stop  offset="0.995" style="stop-color:#62BA46"/>
				</linearGradient>
				<path class="st19" d="M180.1,43l-6.5-4.9c-8.4,1.2-21.1,1.8-21.1,13.8c0,1,0.1,2,0.3,2.9L180,43.8C180,43.5,180,43.3,180.1,43z"
					/>
				<linearGradient id="SVGID_21_" gradientUnits="userSpaceOnUse" x1="0" y1="33.0428" x2="276" y2="33.0428">
					<stop  offset="0" style="stop-color:#20255F"/>
					<stop  offset="0.4963" style="stop-color:#006F73"/>
					<stop  offset="0.5329" style="stop-color:#0B786E"/>
					<stop  offset="0.6699" style="stop-color:#31945D"/>
					<stop  offset="0.7969" style="stop-color:#4CA950"/>
					<stop  offset="0.9092" style="stop-color:#5CB649"/>
					<stop  offset="0.995" style="stop-color:#62BA46"/>
				</linearGradient>
				<path class="st20" d="M141.9,10c0.3,0.5,0.5,1,0.5,1.6c0,0.3-0.1,0.6-0.1,0.9l5.3,4V1.6h-0.1L141.9,10z"/>
				<linearGradient id="SVGID_22_" gradientUnits="userSpaceOnUse" x1="0" y1="33.0428" x2="276" y2="33.0428">
					<stop  offset="0" style="stop-color:#20255F"/>
					<stop  offset="0.4963" style="stop-color:#006F73"/>
					<stop  offset="0.5329" style="stop-color:#0B786E"/>
					<stop  offset="0.6699" style="stop-color:#31945D"/>
					<stop  offset="0.7969" style="stop-color:#4CA950"/>
					<stop  offset="0.9092" style="stop-color:#5CB649"/>
					<stop  offset="0.995" style="stop-color:#62BA46"/>
				</linearGradient>
				<path class="st21" d="M272.4,51.7c-4,0-4.9-1.7-4.9-5.5V31.7h8.5v-9.8h-8.5v0l-8.1,7.1c0.2,0.4,0.3,0.8,0.3,1.2
					c0,0.9-0.5,1.8-1.2,2.3l11.1,31.3c2.2-0.1,4.3-0.3,6.3-0.3v-12C274.8,51.6,273.6,51.7,272.4,51.7z"/>
				<linearGradient id="SVGID_23_" gradientUnits="userSpaceOnUse" x1="0" y1="33.0428" x2="276" y2="33.0428">
					<stop  offset="0" style="stop-color:#20255F"/>
					<stop  offset="0.4963" style="stop-color:#006F73"/>
					<stop  offset="0.5329" style="stop-color:#0B786E"/>
					<stop  offset="0.6699" style="stop-color:#31945D"/>
					<stop  offset="0.7969" style="stop-color:#4CA950"/>
					<stop  offset="0.9092" style="stop-color:#5CB649"/>
					<stop  offset="0.995" style="stop-color:#62BA46"/>
				</linearGradient>
				<path class="st22" d="M237.3,22l-35.1,14.3v21.4l7.5,5.6h8.2l0.1-0.1l0-28.8c0,0,6.2,0,6.3,0c4.6,0,5.2,3.3,5.2,8.1v10.6
					l15.8-13.9V35C245.4,28.2,241.9,23.9,237.3,22z"/>
				<linearGradient id="SVGID_24_" gradientUnits="userSpaceOnUse" x1="0" y1="33.0428" x2="276" y2="33.0428">
					<stop  offset="0" style="stop-color:#20255F"/>
					<stop  offset="0.4963" style="stop-color:#006F73"/>
					<stop  offset="0.5329" style="stop-color:#0B786E"/>
					<stop  offset="0.6699" style="stop-color:#31945D"/>
					<stop  offset="0.7969" style="stop-color:#4CA950"/>
					<stop  offset="0.9092" style="stop-color:#5CB649"/>
					<stop  offset="0.995" style="stop-color:#62BA46"/>
				</linearGradient>
				<path class="st23" d="M257,33c-0.6,0-1.1-0.2-1.5-0.4l-3.8,3.3v15.7c0,11.4,7.4,12.4,14.2,12.4c0.7,0,1.5,0,2.2-0.1L257.1,33
					C257.1,33,257,33,257,33z"/>
				<linearGradient id="SVGID_25_" gradientUnits="userSpaceOnUse" x1="0" y1="33.0428" x2="276" y2="33.0428">
					<stop  offset="0" style="stop-color:#20255F"/>
					<stop  offset="0.4963" style="stop-color:#006F73"/>
					<stop  offset="0.5329" style="stop-color:#0B786E"/>
					<stop  offset="0.6699" style="stop-color:#31945D"/>
					<stop  offset="0.7969" style="stop-color:#4CA950"/>
					<stop  offset="0.9092" style="stop-color:#5CB649"/>
					<stop  offset="0.995" style="stop-color:#62BA46"/>
				</linearGradient>
				<polygon class="st24" points="147.6,63.4 147.6,58.6 135.8,63.4 				"/>
				<linearGradient id="SVGID_26_" gradientUnits="userSpaceOnUse" x1="0" y1="33.0428" x2="276" y2="33.0428">
					<stop  offset="0" style="stop-color:#20255F"/>
					<stop  offset="0.4963" style="stop-color:#006F73"/>
					<stop  offset="0.5329" style="stop-color:#0B786E"/>
					<stop  offset="0.6699" style="stop-color:#31945D"/>
					<stop  offset="0.7969" style="stop-color:#4CA950"/>
					<stop  offset="0.9092" style="stop-color:#5CB649"/>
					<stop  offset="0.995" style="stop-color:#62BA46"/>
				</linearGradient>
				<polygon class="st25" points="109.4,58.9 111.6,63.4 124.7,63.4 124.7,35.9 109.3,58.9 				"/>
				<linearGradient id="SVGID_27_" gradientUnits="userSpaceOnUse" x1="0" y1="33.0428" x2="276" y2="33.0428">
					<stop  offset="0" style="stop-color:#20255F"/>
					<stop  offset="0.4963" style="stop-color:#006F73"/>
					<stop  offset="0.5329" style="stop-color:#0B786E"/>
					<stop  offset="0.6699" style="stop-color:#31945D"/>
					<stop  offset="0.7969" style="stop-color:#4CA950"/>
					<stop  offset="0.9092" style="stop-color:#5CB649"/>
					<stop  offset="0.995" style="stop-color:#62BA46"/>
				</linearGradient>
				<path class="st26" d="M63.2,46.5c-0.3,0.1-0.7,0.2-1.1,0.2c-1.1,0-2-0.6-2.4-1.5v3.4c-0.2,4.3-3,6.5-6.6,6.5c-2.9,0-5-1.9-5-3.8
					c0-0.5,0.1-1,0.2-1.4l-15.7,6.4c1.9,5.6,7.5,8.2,14,8.2c5,0,9.8-1.1,13.1-4.7l1.7,3.6l13.5,0v-7.6c0-0.1,0-0.3,0-0.4L63.2,46.5z
					"/>
				<linearGradient id="SVGID_28_" gradientUnits="userSpaceOnUse" x1="0" y1="33.0428" x2="276" y2="33.0428">
					<stop  offset="0" style="stop-color:#20255F"/>
					<stop  offset="0.4963" style="stop-color:#006F73"/>
					<stop  offset="0.5329" style="stop-color:#0B786E"/>
					<stop  offset="0.6699" style="stop-color:#31945D"/>
					<stop  offset="0.7969" style="stop-color:#4CA950"/>
					<stop  offset="0.9092" style="stop-color:#5CB649"/>
					<stop  offset="0.995" style="stop-color:#62BA46"/>
				</linearGradient>
				<polygon class="st27" points="131.8,25.3 131.8,63.4 147.6,57 147.6,21.9 131.7,21.9 				"/>
				<linearGradient id="SVGID_29_" gradientUnits="userSpaceOnUse" x1="0" y1="33.0428" x2="276" y2="33.0428">
					<stop  offset="0" style="stop-color:#20255F"/>
					<stop  offset="0.4963" style="stop-color:#006F73"/>
					<stop  offset="0.5329" style="stop-color:#0B786E"/>
					<stop  offset="0.6699" style="stop-color:#31945D"/>
					<stop  offset="0.7969" style="stop-color:#4CA950"/>
					<stop  offset="0.9092" style="stop-color:#5CB649"/>
					<stop  offset="0.995" style="stop-color:#62BA46"/>
				</linearGradient>
				<path class="st28" d="M59.4,43.6l-7.1-5.4c-8.4,1.1-20.3,2.1-20.3,13.7c0,1,0.1,2,0.3,2.9L59.4,43.6
					C59.4,43.7,59.4,43.6,59.4,43.6z"/>
				<linearGradient id="SVGID_30_" gradientUnits="userSpaceOnUse" x1="0" y1="33.0428" x2="276" y2="33.0428">
					<stop  offset="0" style="stop-color:#20255F"/>
					<stop  offset="0.4963" style="stop-color:#006F73"/>
					<stop  offset="0.5329" style="stop-color:#0B786E"/>
					<stop  offset="0.6699" style="stop-color:#31945D"/>
					<stop  offset="0.7969" style="stop-color:#4CA950"/>
					<stop  offset="0.9092" style="stop-color:#5CB649"/>
					<stop  offset="0.995" style="stop-color:#62BA46"/>
				</linearGradient>
				<path class="st29" d="M27,20.9c-4.7,0-7.7,1.8-10.1,5.1l-1.4,2.3c0,0.1-0.1,0.2-0.1,0.3h0l-4.8,7.9c0.7,0.8,0.9,1.8,0.6,2.8
					l5,3.5c0.7-4.7,2.7-6.2,4.5-7.2c2.2-1.1,6.9-1.1,11-1.1l0-13C30.2,21.1,28.6,20.9,27,20.9z"/>
				<linearGradient id="SVGID_31_" gradientUnits="userSpaceOnUse" x1="0" y1="33.0428" x2="276" y2="33.0428">
					<stop  offset="0" style="stop-color:#20255F"/>
					<stop  offset="0.4963" style="stop-color:#006F73"/>
					<stop  offset="0.5329" style="stop-color:#0B786E"/>
					<stop  offset="0.6699" style="stop-color:#31945D"/>
					<stop  offset="0.7969" style="stop-color:#4CA950"/>
					<stop  offset="0.9092" style="stop-color:#5CB649"/>
					<stop  offset="0.995" style="stop-color:#62BA46"/>
				</linearGradient>
				<path class="st30" d="M79.6,42.5c0,10.4,5.7,22,17.4,22c3.5,0,5.9-0.6,7.7-1.5l19.9-29.8V18.7L80.1,36.9
					C79.8,38.8,79.6,40.7,79.6,42.5z M102.4,32.4c5.7,0,7,5.4,7,10.2c0,5-1.3,10.3-7,10.3c-5.7,0-7-5.4-7-10.3
					C95.5,37.8,96.8,32.4,102.4,32.4z"/>
				<linearGradient id="SVGID_32_" gradientUnits="userSpaceOnUse" x1="0" y1="33.0428" x2="276" y2="33.0428">
					<stop  offset="0" style="stop-color:#20255F"/>
					<stop  offset="0.4963" style="stop-color:#006F73"/>
					<stop  offset="0.5329" style="stop-color:#0B786E"/>
					<stop  offset="0.6699" style="stop-color:#31945D"/>
					<stop  offset="0.7969" style="stop-color:#4CA950"/>
					<stop  offset="0.9092" style="stop-color:#5CB649"/>
					<stop  offset="0.995" style="stop-color:#62BA46"/>
				</linearGradient>
				<polygon class="st31" points="108.8,23.5 124.7,17 124.7,1.6 108.8,10.1 				"/>
			</g>
		</g>
	</g>
	<g>
		<path class="st32" d="M39.3,104.4c-3.2,0-5.3-0.7-7.3-2.5l1.5-1.4c1.8,1.6,3.4,2.1,5.8,2.1c3.1,0,5-1.3,5-3.6c0-1-0.3-1.9-1-2.4
			c-0.7-0.5-1.2-0.7-2.8-0.9l-2.5-0.4c-1.7-0.2-3-0.7-3.9-1.5c-1.1-0.9-1.6-2.1-1.6-3.6c0-3.3,2.6-5.4,6.8-5.4
			c2.7,0,4.5,0.6,6.3,2.1l-1.5,1.3c-1.3-1.1-2.7-1.7-4.9-1.7c-2.8,0-4.5,1.4-4.5,3.6c0,0.9,0.3,1.7,1,2.2c0.7,0.5,1.8,0.9,2.9,1.1
			l2.3,0.3c2,0.3,3,0.7,3.9,1.4c1.2,0.9,1.8,2.2,1.8,3.8C46.6,102.3,43.7,104.4,39.3,104.4z"/>
		<path class="st32" d="M70.8,102.4c-1.4,1.3-3.3,2-5.4,2c-2.1,0-4-0.7-5.4-2c-2-1.8-2-3.7-2-7.8c0-4.1,0-6,2-7.8
			c1.4-1.3,3.3-2,5.4-2c2.1,0,4,0.7,5.4,2c2,1.8,2,3.7,2,7.8C72.8,98.7,72.8,100.6,70.8,102.4z M69.1,88c-0.9-0.9-2.3-1.4-3.7-1.4
			s-2.7,0.5-3.7,1.4c-1.3,1.2-1.5,2.5-1.5,6.6c0,4,0.1,5.3,1.5,6.6c0.9,0.9,2.3,1.4,3.7,1.4s2.7-0.5,3.7-1.4
			c1.3-1.2,1.5-2.5,1.5-6.6C70.6,90.5,70.4,89.2,69.1,88z"/>
		<path class="st32" d="M85.6,104.2V84.9h2.3v17.5h10.8v1.8H85.6z"/>
		<path class="st32" d="M116.3,104.4c-4.3,0-7.4-2.7-7.4-6.5V84.9h2.3v12.8c0,2.9,2,4.9,5.1,4.9c3.1,0,5.1-1.9,5.1-4.9V84.9h2.3
			v12.9C123.7,101.7,120.6,104.4,116.3,104.4z"/>
		<path class="st32" d="M143.3,86.8v17.5H141V86.8h-6.1v-1.8h14.5v1.8H143.3z"/>
		<path class="st32" d="M160.8,104.2V84.9h2.3v19.3H160.8z"/>
		<path class="st32" d="M188.7,102.4c-1.4,1.3-3.3,2-5.4,2c-2.1,0-4-0.7-5.4-2c-2-1.8-2-3.7-2-7.8c0-4.1,0-6,2-7.8
			c1.4-1.3,3.3-2,5.4-2c2.1,0,4,0.7,5.4,2c2,1.8,2,3.7,2,7.8C190.7,98.7,190.7,100.6,188.7,102.4z M187,88c-0.9-0.9-2.3-1.4-3.7-1.4
			c-1.4,0-2.7,0.5-3.7,1.4c-1.3,1.2-1.5,2.5-1.5,6.6c0,4,0.1,5.3,1.5,6.6c0.9,0.9,2.3,1.4,3.7,1.4c1.4,0,2.7-0.5,3.7-1.4
			c1.3-1.2,1.5-2.5,1.5-6.6C188.5,90.5,188.3,89.2,187,88z"/>
		<path class="st32" d="M217,104.2l-11.2-15.5v15.5h-2.3V84.9h2.1l11.2,15.4V84.9h2.3v19.3H217z"/>
		<path class="st32" d="M238.3,104.4c-3.2,0-5.3-0.7-7.3-2.5l1.5-1.4c1.8,1.6,3.4,2.1,5.8,2.1c3.1,0,5-1.3,5-3.6c0-1-0.3-1.9-1-2.4
			c-0.7-0.5-1.2-0.7-2.8-0.9l-2.5-0.4c-1.7-0.2-3-0.7-3.9-1.5c-1.1-0.9-1.6-2.1-1.6-3.6c0-3.3,2.6-5.4,6.8-5.4
			c2.7,0,4.5,0.6,6.3,2.1l-1.5,1.3c-1.3-1.1-2.7-1.7-4.9-1.7c-2.8,0-4.5,1.4-4.5,3.6c0,0.9,0.3,1.7,1,2.2c0.7,0.5,1.8,0.9,2.9,1.1
			l2.3,0.3c2,0.3,3,0.7,3.9,1.4c1.2,0.9,1.8,2.2,1.8,3.8C245.6,102.3,242.7,104.4,238.3,104.4z"/>
	</g>
</g>
</svg>
